<?xml version="1.0" standalone="no"?>
<!DOCTYPE svg PUBLIC "-//W3C//DTD SVG 20010904//EN"
 "http://www.w3.org/TR/2001/REC-SVG-20010904/DTD/svg10.dtd">
<svg version="1.0" xmlns="http://www.w3.org/2000/svg"
 width="300.000000pt" height="65.000000pt" viewBox="0 0 300.000000 65.000000"
 preserveAspectRatio="xMidYMid meet">

<g transform="translate(0.000000,65.000000) scale(0.100000,-0.100000)"
fill="#000000" stroke="none">
<path d="M15 325 l0 -315 90 0 90 0 0 315 0 315 -90 0 -90 0 0 -315z"/>
<path d="M396 629 c4 -7 7 -25 6 -40 -1 -29 11 -38 24 -18 3 6 27 24 52 40
l46 29 -68 0 c-48 0 -65 -3 -60 -11z"/>
<path d="M688 345 c2 -195 -1 -302 -8 -315 -10 -19 -7 -20 91 -20 88 0 100 2
95 16 -3 9 -6 150 -6 315 l0 299 -87 0 -88 0 3 -295z"/>
<path d="M990 637 c0 -2 7 -18 16 -36 12 -24 15 -54 12 -126 -3 -81 -6 -97
-26 -118 -20 -21 -21 -25 -7 -37 12 -10 15 -35 15 -112 0 -119 13 -158 63
-181 61 -29 171 -17 139 15 -7 7 -12 40 -12 82 0 134 -17 160 -129 193 -34 10
-61 21 -61 24 0 3 19 11 43 18 63 19 117 53 133 83 32 62 4 132 -67 165 -41
19 -119 39 -119 30z"/>
<path d="M1394 611 c-62 -36 -119 -98 -150 -165 -18 -39 -24 -68 -24 -126 0
-90 27 -157 86 -214 36 -35 102 -76 122 -76 5 0 0 26 -11 58 -29 80 -30 366
-3 457 10 33 23 66 28 73 20 24 2 21 -48 -7z"/>
<path d="M1625 624 c28 -66 36 -130 37 -289 2 -137 -2 -182 -16 -230 -10 -33
-23 -66 -29 -74 -10 -11 -8 -13 13 -6 71 21 151 96 191 180 72 149 7 323 -152
409 -45 25 -51 26 -44 10z"/>
<path d="M2035 619 c-117 -57 -157 -177 -89 -267 29 -37 71 -60 169 -92 92
-30 138 -56 158 -90 21 -35 22 -86 2 -124 -8 -15 -15 -30 -15 -33 0 -2 23 8
52 24 72 39 108 97 108 175 0 111 -36 147 -203 202 -107 36 -124 45 -144 75
-27 40 -29 74 -8 115 9 16 14 30 13 32 -2 1 -21 -6 -43 -17z"/>
<path d="M2605 619 c-117 -57 -157 -177 -89 -267 29 -37 71 -60 169 -92 133
-43 175 -79 175 -152 0 -18 -7 -46 -15 -62 -21 -39 -20 -39 28 -15 83 42 117
95 117 184 0 108 -38 145 -203 200 -107 35 -124 44 -144 74 -27 39 -29 74 -8
115 9 16 14 30 13 32 -2 1 -21 -6 -43 -17z"/>
<path d="M2316 611 l-28 -6 22 -20 c12 -11 30 -36 41 -55 l18 -35 1 63 c0 66
0 65 -54 53z"/>
<path d="M2886 611 l-28 -6 22 -20 c12 -11 30 -36 41 -55 l18 -35 1 63 c0 66
0 65 -54 53z"/>
<path d="M253 398 l-52 -53 79 -140 c45 -79 80 -152 80 -167 l0 -28 124 0 124
0 -107 163 c-59 89 -124 188 -144 220 -20 31 -40 57 -45 57 -4 0 -31 -24 -59
-52z"/>
<path d="M1910 127 l0 -83 38 0 c20 0 51 -4 67 -9 l30 -8 -33 37 c-18 21 -46
62 -63 92 -17 30 -33 54 -35 54 -2 0 -4 -37 -4 -83z"/>
<path d="M2480 127 l0 -83 38 0 c20 0 51 -4 67 -9 l30 -8 -33 37 c-18 21 -46
62 -63 92 -17 30 -33 54 -35 54 -2 0 -4 -37 -4 -83z"/>
</g>
</svg>
